# xmcd CD database file
#
# Track frame offsets:
#	150
#	16482
#	36570
#
# Disc length: 702 seconds
#
# Revision: 0
# Processed by: cddbd v1.5.1PL0 Copyright (c) Steve Scherf et al.
# Submitted via: CDex 1.51
#
DISCID=2102bc03
DTITLE=穴井夕子 - 平和な国の子供たち
DYEAR=1997
DGENRE=JPop
TTITLE0=平和な国の子供たち
TTITLE1=MIND TO MINE
TTITLE2=平和な国の子供たち(Backing Track)
EXTD=YEAR: 1997
EXTT0=
EXTT1=
EXTT2=
PLAYORDER=
